# xmcd
#
# Track frame offsets:
#	150
#	11931
#	25430
#	35830
#	47026
#	57487
#	68212
#	78303
#	91239
#	100578
#	111232
#	122496
#	133045
#	142647
#
# Disc length: 2058 seconds
# Revision: 1
# Processed by: cddbd v1.5.2PL0 Copyright (c) Steve Scherf et al.
# Submitted via: dBpowerAMP V12.0
#
DISCID=bc08080e
DTITLE=Patsy Cline - Country Ladies
DYEAR=2006
DGENRE=Country
TTITLE0=Walkin' After Midnight
TTITLE1=Life's Railway To Haven
TTITLE2=Three Cigarettes In An Ashtray
TTITLE3=Just Out Of Reach
TTITLE4=Honky Tonk Merry-Go-Round
TTITLE5=I Cried All The Way To The Altar
TTITLE6=Walkin' Dreams
TTITLE7=Fingerprints
TTITLE8=Love Me, Love Me Honey Do
TTITLE9=Stop Look And Listen
TTITLE10=The Heart You Break May Be Your Own
TTITLE11=Too Many Secrets
TTITLE12=I've Loved And Lost Again
TTITLE13=In Care Of The Blues
EXTD=
EXTT0=
EXTT1=
EXTT2=
EXTT3=
EXTT4=
EXTT5=
EXTT6=
EXTT7=
EXTT8=
EXTT9=
EXTT10=
EXTT11=
EXTT12=
EXTT13=
PLAYORDER=
